<svg width="34" height="34" viewBox="0 0 34 34" fill="none" xmlns="http://www.w3.org/2000/svg">
<path d="M13.6668 26.9999C15.0557 26.9999 16.2363 26.5138 17.2085 25.5416C18.1807 24.5694 18.6668 23.3888 18.6668 21.9999V10.3333H23.6668V6.99992H16.1668V17.6666C15.7779 17.4444 15.3752 17.2777 14.9585 17.1666C14.5418 17.0555 14.1113 16.9999 13.6668 16.9999C12.2779 16.9999 11.0974 17.486 10.1252 18.4583C9.15294 19.4305 8.66683 20.611 8.66683 21.9999C8.66683 23.3888 9.15294 24.5694 10.1252 25.5416C11.0974 26.5138 12.2779 26.9999 13.6668 26.9999ZM17.0002 33.6666C14.6946 33.6666 12.5279 33.2291 10.5002 32.3541C8.47238 31.4791 6.7085 30.2916 5.2085 28.7916C3.7085 27.2916 2.521 25.5277 1.646 23.4999C0.770996 21.4721 0.333496 19.3055 0.333496 16.9999C0.333496 14.6944 0.770996 12.5277 1.646 10.4999C2.521 8.47214 3.7085 6.70825 5.2085 5.20825C6.7085 3.70825 8.47238 2.52075 10.5002 1.64575C12.5279 0.770752 14.6946 0.333252 17.0002 0.333252C19.3057 0.333252 21.4724 0.770752 23.5002 1.64575C25.5279 2.52075 27.2918 3.70825 28.7918 5.20825C30.2918 6.70825 31.4793 8.47214 32.3543 10.4999C33.2293 12.5277 33.6668 14.6944 33.6668 16.9999C33.6668 19.3055 33.2293 21.4721 32.3543 23.4999C31.4793 25.5277 30.2918 27.2916 28.7918 28.7916C27.2918 30.2916 25.5279 31.4791 23.5002 32.3541C21.4724 33.2291 19.3057 33.6666 17.0002 33.6666ZM17.0002 30.3333C20.7224 30.3333 23.8752 29.0416 26.4585 26.4583C29.0418 23.8749 30.3335 20.7221 30.3335 16.9999C30.3335 13.2777 29.0418 10.1249 26.4585 7.54159C23.8752 4.95825 20.7224 3.66659 17.0002 3.66659C13.2779 3.66659 10.1252 4.95825 7.54183 7.54159C4.9585 10.1249 3.66683 13.2777 3.66683 16.9999C3.66683 20.7221 4.9585 23.8749 7.54183 26.4583C10.1252 29.0416 13.2779 30.3333 17.0002 30.3333Z" fill="#FF5733"/>
</svg>
