<svg width="1440" height="900" viewBox="0 0 1440 900" fill="none" xmlns="http://www.w3.org/2000/svg">
<rect width="1440" height="900" fill="#151515"/>
<mask id="mask0_77_449" style="mask-type:alpha" maskUnits="userSpaceOnUse" x="-378" y="193" width="1168" height="1168">
<rect x="-377.923" y="678.878" width="837" height="837" transform="rotate(-35.4792 -377.923 678.878)" fill="#D9D9D9"/>
</mask>
<g mask="url(#mask0_77_449)">
<path d="M270.421 987.654C294.088 970.786 308.3 948.165 313.059 919.79C317.818 891.416 311.763 865.396 294.895 841.73L153.203 642.932L238.402 582.207L197.919 525.408L70.1205 616.496L199.667 798.253C190.342 799.19 181.455 801.241 173.005 804.409C164.556 807.576 156.544 811.858 148.971 817.256C125.305 834.124 111.092 856.745 106.334 885.119C101.575 913.493 107.629 939.514 124.497 963.18C141.366 986.846 163.987 1001.06 192.361 1005.82C220.735 1010.58 246.755 1004.52 270.421 987.654ZM408.188 1060.77C368.901 1088.77 326.668 1107.63 281.489 1117.35C236.309 1127.06 191.83 1128.25 148.053 1120.91C104.276 1113.57 62.6187 1097.93 23.0815 1074.01C-16.4557 1050.08 -50.2248 1018.48 -78.2258 979.189C-106.227 939.903 -125.086 897.67 -134.804 852.491C-144.521 807.311 -145.709 762.832 -138.367 719.055C-131.025 675.278 -115.391 633.621 -91.4647 594.083C-67.5387 554.546 -35.9326 520.777 3.35353 492.776C42.6397 464.775 84.8727 445.916 130.052 436.198C175.232 426.481 219.711 425.293 263.488 432.635C307.265 439.977 348.922 455.611 388.46 479.537C427.997 503.463 461.766 535.069 489.767 574.355C517.768 613.642 536.627 655.875 546.345 701.054C556.062 746.234 557.25 790.713 549.908 834.49C542.566 878.267 526.932 919.924 503.006 959.461C479.08 998.999 447.474 1032.77 408.188 1060.77ZM367.704 1003.97C431.13 958.763 469.165 898.463 481.81 823.069C494.455 747.675 478.174 678.265 432.968 614.839C387.761 551.413 327.461 513.378 252.067 500.733C176.673 488.088 107.263 504.369 43.8369 549.575C-19.5889 594.782 -57.6242 655.082 -70.269 730.476C-82.9138 805.87 -66.633 875.28 -21.4266 938.706C23.7799 1002.13 84.0802 1040.17 159.474 1052.81C234.868 1065.46 304.278 1049.18 367.704 1003.97Z" fill="#1B1B1B"/>
</g>
<mask id="mask1_77_449" style="mask-type:alpha" maskUnits="userSpaceOnUse" x="711" y="-183" width="1138" height="1138">
<rect x="1115.71" y="-182.98" width="837" height="837" transform="rotate(28.9142 1115.71 -182.98)" fill="#D9D9D9"/>
</mask>
<g mask="url(#mask1_77_449)">
<path d="M1117.47 535.136C1142.91 549.187 1169.45 552.227 1197.09 544.256C1224.74 536.284 1245.59 519.578 1259.64 494.139L1377.67 280.445L1469.25 331.031L1502.98 269.976L1365.6 194.097L1257.69 389.474C1252.81 381.469 1247.12 374.341 1240.61 368.091C1234.11 361.84 1226.78 356.466 1218.64 351.97C1193.2 337.918 1166.66 334.878 1139.01 342.85C1111.37 350.821 1090.52 367.527 1076.47 392.966C1062.42 418.406 1059.38 444.948 1067.35 472.592C1075.32 500.236 1092.03 521.084 1117.47 535.136ZM1111.07 690.97C1068.84 667.644 1033.59 637.71 1005.3 601.168C977.007 564.625 956.712 525.029 944.413 482.378C932.114 439.727 928.209 395.405 932.697 349.41C937.186 303.415 951.093 259.303 974.419 217.073C997.745 174.843 1027.68 139.584 1064.22 111.294C1100.76 83.005 1140.36 62.7108 1183.01 50.4117C1225.66 38.1127 1269.98 34.2074 1315.98 38.6959C1361.97 43.1844 1406.09 57.0915 1448.32 80.4174C1490.55 103.743 1525.81 133.677 1554.09 170.22C1582.38 206.762 1602.68 246.359 1614.98 289.01C1627.28 331.66 1631.18 375.983 1626.69 421.978C1622.2 467.972 1608.3 512.084 1584.97 554.314C1561.65 596.544 1531.71 631.804 1495.17 660.093C1458.63 688.383 1419.03 708.677 1376.38 720.976C1333.73 733.275 1289.41 737.18 1243.41 732.692C1197.42 728.203 1153.3 714.296 1111.07 690.97ZM1144.8 629.915C1212.98 667.574 1283.79 675.812 1357.25 654.63C1430.7 633.449 1486.26 588.769 1523.92 520.59C1561.58 452.412 1569.81 381.596 1548.63 308.142C1527.45 234.688 1482.77 179.131 1414.59 141.473C1346.41 103.814 1275.6 95.5756 1202.14 116.757C1128.69 137.939 1073.13 182.619 1035.47 250.797C997.816 318.976 989.577 389.792 1010.76 463.246C1031.94 536.7 1076.62 592.256 1144.8 629.915Z" fill="#1B1B1B"/>
</g>
</svg>
